<?xml version="1.0" standalone="no"?>
<!DOCTYPE svg PUBLIC "-//W3C//DTD SVG 20010904//EN"
 "http://www.w3.org/TR/2001/REC-SVG-20010904/DTD/svg10.dtd">
<svg version="1.0" xmlns="http://www.w3.org/2000/svg"
 width="200.000000pt" height="200.000000pt" viewBox="0 0 200.000000 200.000000"
 preserveAspectRatio="xMidYMid meet">
<metadata>
Created by potrace 1.15, written by Peter Selinger 2001-2017
</metadata>
<g transform="translate(0.000000,200.000000) scale(0.100000,-0.100000)"
fill="#000000" stroke="none">
<path d="M271 1657 c-44 -22 -65 -62 -69 -132 l-4 -65 -34 0 -34 0 0 -70 0
-70 35 0 35 0 0 -300 c0 -258 -2 -301 -15 -306 -9 -4 -15 -19 -15 -35 0 -25
-4 -29 -28 -29 -34 0 -52 16 -52 47 0 20 5 23 35 23 31 0 35 3 35 25 0 25 -1
25 -80 25 -79 0 -80 0 -80 -25 0 -16 6 -25 15 -25 9 0 15 -9 15 -21 0 -11 -7
-27 -15 -35 -18 -18 -20 -85 -3 -102 15 -15 74 -16 83 -2 3 5 22 10 41 10 30
0 34 -3 34 -25 0 -14 7 -28 15 -31 10 -4 15 -20 15 -46 0 -81 53 -138 131
-138 85 0 136 70 127 177 l-3 43 42 0 43 0 0 -65 c0 -106 41 -155 127 -155 82
1 123 51 123 153 l0 67 43 0 c43 0 43 -1 39 -30 -9 -63 8 -123 45 -157 29 -28
42 -33 84 -33 42 0 55 5 86 34 36 33 38 37 41 110 l4 76 39 0 39 0 0 -60 c0
-104 46 -160 131 -160 42 0 53 5 84 35 34 34 35 38 35 110 l0 75 45 0 45 0 0
-65 c0 -106 41 -155 127 -155 82 1 123 51 123 153 0 51 3 67 14 67 8 0 16 -10
18 -23 3 -20 9 -22 86 -25 l82 -3 0 116 0 115 -85 0 c-78 0 -85 -2 -85 -20 0
-11 -7 -20 -15 -20 -13 0 -15 42 -15 315 l0 315 30 0 30 0 0 70 0 70 -30 0
-30 0 0 66 c0 64 -2 68 -39 105 -33 33 -45 39 -81 39 -85 0 -130 -51 -130
-149 l0 -61 -45 0 -45 0 0 65 c0 99 -41 145 -128 145 -74 0 -122 -61 -122
-155 l0 -55 -39 0 -39 0 -4 71 c-4 67 -6 73 -41 105 -30 28 -45 34 -79 34 -25
0 -56 -8 -74 -19 -39 -24 -68 -93 -62 -150 l4 -41 -43 0 -43 0 0 61 c0 98 -45
149 -130 149 -36 0 -48 -6 -81 -39 -37 -37 -39 -41 -39 -105 l0 -66 -42 0 -43
0 0 63 c-1 70 -20 109 -66 133 -34 17 -86 18 -118 1z m269 -652 l0 -315 -42 0
-43 0 0 315 0 315 43 0 42 0 0 -315z m335 0 l0 -315 -42 0 -43 0 0 315 0 315
43 0 42 0 0 -315z m335 0 l0 -315 -40 0 -40 0 0 315 0 315 40 0 40 0 0 -315z
m340 0 l0 -315 -45 0 -45 0 0 315 0 315 45 0 45 0 0 -315z"/>
</g>
</svg>
