<?xml version="1.0" standalone="no"?>
<!DOCTYPE svg PUBLIC "-//W3C//DTD SVG 20010904//EN"
 "http://www.w3.org/TR/2001/REC-SVG-20010904/DTD/svg10.dtd">
<svg version="1.0" xmlns="http://www.w3.org/2000/svg"
 width="200.000000pt" height="200.000000pt" viewBox="0 0 200.000000 200.000000"
 preserveAspectRatio="xMidYMid meet">
<metadata>
Created by potrace 1.15, written by Peter Selinger 2001-2017
</metadata>
<g transform="translate(0.000000,200.000000) scale(0.100000,-0.100000)"
fill="#000000" stroke="none">
<path d="M993 1665 l-43 -46 -106 21 c-58 11 -128 20 -156 20 -44 0 -54 -4
-84 -34 -27 -27 -34 -42 -34 -74 0 -47 29 -88 77 -108 35 -15 81 -11 235 21
l69 15 24 -28 c13 -15 22 -34 20 -42 -2 -8 -7 -30 -10 -48 -4 -19 -27 -56 -51
-83 -47 -53 -50 -60 -34 -90 8 -15 7 -19 -5 -19 -23 0 -55 -37 -55 -64 0 -15
11 -33 26 -45 24 -19 26 -25 20 -67 -3 -25 -12 -58 -19 -73 l-12 -26 -208 -3
-207 -2 -16 -25 c-13 -20 -25 -25 -60 -25 -42 0 -44 1 -44 30 0 20 -9 40 -26
57 -22 22 -32 25 -70 20 -75 -8 -74 -5 -74 -228 0 -193 1 -198 22 -213 29 -20
97 -20 126 0 16 11 22 25 22 55 l0 39 46 0 c37 0 50 -5 66 -25 l19 -25 202 0
202 0 69 -45 c84 -55 132 -69 211 -62 65 5 101 19 182 74 47 32 57 35 100 30
37 -4 54 -12 75 -36 26 -29 28 -38 28 -115 0 -115 1 -116 164 -116 70 0 136 5
147 10 17 10 19 22 19 113 -1 118 -10 168 -47 244 -74 150 -219 243 -381 243
-84 0 -94 9 -100 91 -4 55 -2 61 22 80 38 30 33 78 -11 100 -23 11 -29 19 -22
30 15 24 10 37 -36 89 -25 28 -47 60 -49 73 -3 12 -7 33 -10 47 -3 17 3 34 18
53 l22 28 71 -15 c155 -33 201 -37 236 -22 47 19 77 61 77 107 0 31 -7 46 -35
74 -31 31 -42 35 -85 35 -27 0 -96 -9 -154 -20 l-106 -21 -43 46 c-43 45 -44
45 -112 45 -68 0 -69 0 -112 -45z"/>
</g>
</svg>
